<svg width="20" height="18" viewBox="0 0 20 18" fill="none" xmlns="http://www.w3.org/2000/svg">
<g id="Hide">
<path id="Intersect" d="M18.7994 8.21558L19.5013 7.83173L18.7994 8.21558ZM18.7994 9.78456L19.5013 10.1684L18.7994 9.78456ZM1.20058 8.21544L1.90247 8.5993V8.5993L1.20058 8.21544ZM1.20057 9.78442L0.498671 10.1683L1.20057 9.78442ZM17.5585 5.27327C17.2422 4.96482 16.7357 4.97122 16.4272 5.28756C16.1188 5.6039 16.1252 6.11039 16.4415 6.41884L17.5585 5.27327ZM7.6987 13.9112C7.27072 13.8015 6.83481 14.0594 6.72507 14.4874C6.61533 14.9154 6.87332 15.3513 7.3013 15.4611L7.6987 13.9112ZM12.604 3.34114L12.397 4.11388L12.604 3.34114ZM5.07264 13.7089L4.67915 14.4054L5.53356 13.055L5.07264 13.7089ZM1.90247 8.5993C3.46697 5.7386 6.50687 3.8 9.99997 3.8V2.2C5.89985 2.2 2.33304 4.47745 0.498689 7.83158L1.90247 8.5993ZM18.0975 9.4007C16.533 12.2614 13.4931 14.2 10 14.2V15.8C14.1002 15.8 17.667 13.5225 19.5013 10.1684L18.0975 9.4007ZM18.0975 8.59943C18.2342 8.84926 18.2342 9.15088 18.0975 9.4007L19.5013 10.1684C19.8996 9.44023 19.8996 8.55994 19.5013 7.83173L18.0975 8.59943ZM0.498689 7.83158C0.100443 8.55978 0.100437 9.44006 0.498671 10.1683L1.90247 9.40057C1.76584 9.15074 1.76584 8.84913 1.90247 8.5993L0.498689 7.83158ZM16.4415 6.41884C17.0962 7.05724 17.6559 7.79186 18.0975 8.59943L19.5013 7.83173C18.9827 6.8834 18.326 6.02167 17.5585 5.27327L16.4415 6.41884ZM10 14.2C9.20441 14.2 8.43346 14.0996 7.6987 13.9112L7.3013 15.4611C8.16483 15.6825 9.06927 15.8 10 15.8V14.2ZM9.99997 3.8C10.8302 3.8 11.6335 3.90932 12.397 4.11388L12.8111 2.5684C11.9138 2.32797 10.9712 2.2 9.99997 2.2V3.8ZM3.96268 11.9526C3.13248 11.2338 2.43249 10.3698 1.90247 9.40057L0.498671 10.1683C1.12104 11.3063 1.94224 12.3197 2.91544 13.1622L3.96268 11.9526ZM5.46614 13.0124C4.92932 12.7091 4.42583 12.3535 3.96268 11.9526L2.91544 13.1622C3.4585 13.6324 4.04908 14.0495 4.67915 14.4054L5.46614 13.0124ZM2.97815 13.2113L4.61173 14.3628L5.53356 13.055L3.89997 11.9035L2.97815 13.2113ZM12.397 4.11388C13.1101 4.30496 13.7891 4.57934 14.4231 4.92605L15.1908 3.52228C14.4465 3.11525 13.6489 2.7929 12.8111 2.5684L12.397 4.11388Z" stroke="#c3c3c3" fill="#C3C3C3"/>
<path id="Line" d="M17.4644 1.46436L2.46436 16.4644" stroke="#C3C3C3" stroke-width="1.6" stroke-linecap="round" stroke-linejoin="round"/>
<path id="Ellipse 44" d="M7 9C7 7.34315 8.34315 6 10 6" stroke="#C3C3C3" stroke-width="1.6" stroke-linecap="round"/>
</g>
</svg>
